<?xml version="1.0" standalone="no"?>
<!DOCTYPE svg PUBLIC "-//W3C//DTD SVG 20010904//EN"
 "http://www.w3.org/TR/2001/REC-SVG-20010904/DTD/svg10.dtd">
<svg version="1.0" xmlns="http://www.w3.org/2000/svg"
 width="200.000000pt" height="199.000000pt" viewBox="0 0 200.000000 199.000000"
 preserveAspectRatio="xMidYMid meet">
<metadata>
Created by potrace 1.16, written by Peter Selinger 2001-2019
</metadata>
<g transform="translate(0.000000,199.000000) scale(0.100000,-0.100000)"
fill="#000000" stroke="none">
<path d="M275 1941 c-108 -7 -129 -14 -169 -62 -62 -73 -59 -30 -59 -884 0
-846 -3 -812 53 -883 53 -66 -11 -62 899 -62 818 0 824 0 857 21 19 11 47 42
62 67 l27 47 3 795 c3 868 5 829 -54 899 -55 65 -14 62 -802 66 -394 1 -762 0
-817 -4z m1330 -68 c160 -6 169 -7 198 -32 16 -14 40 -48 53 -76 l24 -50 0
-714 c0 -534 -3 -724 -12 -754 -7 -23 -31 -60 -53 -83 -35 -37 -47 -43 -99
-49 -33 -4 -378 -6 -768 -3 -797 5 -724 -2 -792 82 l-31 38 -3 750 -2 750 26
49 c44 80 53 83 254 90 268 8 1016 10 1205 2z"/>
<path d="M391 1743 c-63 -5 -92 -22 -123 -72 l-23 -36 0 -640 c0 -702 -3 -666
60 -725 l27 -25 668 0 668 0 27 25 c61 57 58 27 59 720 1 624 1 636 -20 674
-11 22 -33 49 -48 60 -27 21 -38 21 -634 22 -334 0 -631 -1 -661 -3z m1235
-79 c15 -11 37 -38 48 -60 21 -38 21 -52 21 -614 0 -630 3 -602 -60 -660 l-27
-25 -319 -9 c-176 -5 -448 -5 -605 -1 l-285 7 -31 26 c-59 49 -58 47 -65 610
-7 561 -3 634 30 684 48 71 24 69 679 66 574 -3 587 -3 614 -24z"/>
<path d="M954 1505 c-9 -22 4 -35 36 -35 16 0 41 -11 57 -24 24 -20 28 -32 28
-73 0 -26 -8 -64 -18 -84 -16 -32 -21 -35 -59 -34 -39 1 -43 4 -60 41 -15 30
-17 53 -13 102 5 57 4 62 -14 62 -24 0 -36 -48 -29 -115 6 -49 95 -235 113
-235 19 0 38 29 80 115 51 105 58 183 23 235 -13 19 -35 40 -48 47 -34 17 -89
16 -96 -2z"/>
<path d="M364 1444 c8 -58 11 -64 44 -64 49 0 53 -9 42 -96 -15 -126 -18 -780
-3 -795 8 -8 42 -13 85 -13 67 -1 73 1 73 19 0 15 -8 21 -35 25 l-35 5 -8 100
c-7 95 -4 232 7 242 2 3 32 -18 66 -46 84 -70 103 -68 169 25 l40 56 3 -64 c2
-48 7 -63 18 -63 10 0 17 16 22 50 11 67 0 175 -17 175 -7 0 -43 -40 -79 -90
-36 -49 -69 -90 -73 -90 -11 0 -136 109 -146 127 -22 36 4 29 61 -16 35 -28
68 -51 73 -51 5 0 22 21 39 48 42 66 39 120 -4 76 -9 -8 -21 -24 -26 -35 -15
-26 -32 -24 -64 10 -16 16 -41 35 -57 41 l-29 12 0 138 c0 123 -2 139 -20 160
-26 29 -11 50 36 50 39 0 42 4 50 64 l7 46 -123 0 -123 0 7 -46z"/>
<path d="M1545 1355 c-3 -8 -7 -22 -10 -30 -2 -8 -14 -15 -27 -15 -30 0 -106
-82 -147 -159 -36 -68 -40 -123 -8 -129 28 -6 98 33 160 89 60 53 90 98 85
126 -2 12 6 19 27 23 33 6 49 40 19 40 -16 0 -16 1 -1 18 10 10 17 24 17 30 0
16 -43 15 -59 0 -10 -11 -14 -10 -22 5 -12 21 -28 22 -34 2z"/>
<path d="M824 1161 c-39 -24 -74 -68 -74 -92 0 -30 23 -22 65 21 47 48 70 51
78 12 8 -39 51 -65 108 -66 54 -1 83 19 106 72 13 32 15 33 36 19 12 -7 55
-63 94 -123 47 -70 80 -110 93 -112 12 -2 39 12 68 36 59 49 69 54 76 43 3 -5
-10 -28 -29 -52 -25 -28 -33 -45 -26 -52 26 -26 101 48 101 99 0 12 -8 32 -18
44 -23 28 -56 20 -110 -26 -22 -19 -44 -34 -49 -34 -5 0 -39 45 -76 99 -78
115 -101 133 -160 129 -39 -3 -42 -5 -39 -29 6 -51 -86 -93 -118 -54 -7 8 -16
30 -19 48 -6 28 -11 32 -41 35 -21 1 -47 -5 -66 -17z"/>
<path d="M1150 885 c0 -95 3 -115 15 -115 16 0 23 23 27 85 l3 40 39 -58 c41
-61 66 -74 107 -59 38 15 54 39 39 57 -12 14 -15 14 -36 0 -13 -8 -28 -15 -33
-15 -5 0 -38 41 -72 90 -33 50 -67 90 -75 90 -11 0 -14 -23 -14 -115z"/>
<path d="M1143 749 c-59 -18 -78 -38 -53 -54 5 -3 42 4 81 15 55 17 74 19 85
9 39 -32 1 -50 -253 -125 -244 -71 -276 -76 -271 -41 2 18 18 27 93 50 190 60
220 72 223 90 5 25 -17 22 -174 -24 -171 -50 -184 -57 -184 -108 0 -30 -4 -40
-20 -44 -34 -9 -23 -34 18 -41 49 -8 477 -8 620 1 96 5 112 9 110 22 -2 12
-17 17 -56 19 -51 3 -52 4 -52 35 0 39 -13 61 -31 55 -9 -3 -13 -17 -11 -41 3
-35 2 -37 -25 -37 -15 0 -50 7 -77 15 -63 19 -75 19 -83 -2 -10 -27 -23 -33
-73 -33 -85 0 -76 16 27 45 215 60 249 73 261 100 18 38 15 72 -8 95 -25 25
-66 25 -147 -1z"/>
</g>
</svg>
